<mxfile host="app.diagrams.net" modified="2023-06-16T13:06:07.066Z" agent="Mozilla/5.0 (Windows NT 10.0; Win64; x64) AppleWebKit/537.36 (KHTML, like Gecko) Chrome/114.0.0.0 Safari/537.36 Edg/114.0.1823.43" etag="rTpfgubAldrD3yJOrTVR" version="21.4.0" type="device">
  <diagram id="C5RBs43oDa-KdzZeNtuy" name="Page-1">
    <mxGraphModel dx="996" dy="581" grid="1" gridSize="10" guides="1" tooltips="1" connect="1" arrows="1" fold="1" page="1" pageScale="1" pageWidth="827" pageHeight="1169" math="0" shadow="0">
      <root>
        <mxCell id="WIyWlLk6GJQsqaUBKTNV-0" />
        <mxCell id="WIyWlLk6GJQsqaUBKTNV-1" parent="WIyWlLk6GJQsqaUBKTNV-0" />
        <mxCell id="6H1x6LzymzNOAmOgsFud-10" style="edgeStyle=orthogonalEdgeStyle;rounded=0;orthogonalLoop=1;jettySize=auto;html=1;exitX=0.5;exitY=1;exitDx=0;exitDy=0;entryX=0.5;entryY=0;entryDx=0;entryDy=0;" parent="WIyWlLk6GJQsqaUBKTNV-1" source="WIyWlLk6GJQsqaUBKTNV-3" target="WIyWlLk6GJQsqaUBKTNV-6" edge="1">
          <mxGeometry relative="1" as="geometry" />
        </mxCell>
        <mxCell id="WIyWlLk6GJQsqaUBKTNV-3" value="Start" style="rounded=1;whiteSpace=wrap;html=1;fontSize=12;glass=0;strokeWidth=1;shadow=0;fillColor=#fa6800;fontColor=#000000;strokeColor=#C73500;" parent="WIyWlLk6GJQsqaUBKTNV-1" vertex="1">
          <mxGeometry x="147.14" y="280" width="110" height="40" as="geometry" />
        </mxCell>
        <mxCell id="WIyWlLk6GJQsqaUBKTNV-4" value="No" style="rounded=0;html=1;jettySize=auto;orthogonalLoop=1;fontSize=11;endArrow=block;endFill=0;endSize=8;strokeWidth=1;shadow=0;labelBackgroundColor=none;edgeStyle=orthogonalEdgeStyle;" parent="WIyWlLk6GJQsqaUBKTNV-1" source="WIyWlLk6GJQsqaUBKTNV-6" target="HYlRVXP8fHBSpNL6v8k7-2" edge="1">
          <mxGeometry x="0.0105" y="20" relative="1" as="geometry">
            <mxPoint as="offset" />
          </mxGeometry>
        </mxCell>
        <mxCell id="WIyWlLk6GJQsqaUBKTNV-5" value="Yes" style="edgeStyle=orthogonalEdgeStyle;rounded=0;html=1;jettySize=auto;orthogonalLoop=1;fontSize=11;endArrow=block;endFill=0;endSize=8;strokeWidth=1;shadow=0;labelBackgroundColor=none;entryX=0;entryY=0.5;entryDx=0;entryDy=0;exitX=1;exitY=0.5;exitDx=0;exitDy=0;" parent="WIyWlLk6GJQsqaUBKTNV-1" source="WIyWlLk6GJQsqaUBKTNV-6" target="WIyWlLk6GJQsqaUBKTNV-7" edge="1">
          <mxGeometry y="10" relative="1" as="geometry">
            <mxPoint as="offset" />
            <mxPoint x="479" y="398" as="targetPoint" />
            <Array as="points">
              <mxPoint x="470" y="400" />
              <mxPoint x="470" y="400" />
            </Array>
          </mxGeometry>
        </mxCell>
        <mxCell id="WIyWlLk6GJQsqaUBKTNV-6" value="&lt;div&gt;Is the monster stunned or&lt;/div&gt;&lt;div&gt;&amp;nbsp;Does the monster not have move on his card or&lt;/div&gt;&lt;div&gt;&amp;nbsp;there aren&#39;t any reachable hex where &lt;br&gt;&lt;/div&gt;&lt;div&gt;the monster can attack&amp;nbsp; &lt;/div&gt;" style="rhombus;whiteSpace=wrap;html=1;shadow=0;fontFamily=Helvetica;fontSize=12;align=center;strokeWidth=1;spacing=6;spacingTop=-4;" parent="WIyWlLk6GJQsqaUBKTNV-1" vertex="1">
          <mxGeometry x="32.14" y="340" width="340" height="120" as="geometry" />
        </mxCell>
        <mxCell id="WIyWlLk6GJQsqaUBKTNV-7" value="&lt;font color=&quot;#ff8000&quot;&gt;Monster does not move&lt;/font&gt;" style="strokeWidth=2;html=1;shape=mxgraph.flowchart.terminator;whiteSpace=wrap;strokeColor=#ff8000;" parent="WIyWlLk6GJQsqaUBKTNV-1" vertex="1">
          <mxGeometry x="521.97" y="380" width="180.05" height="40" as="geometry" />
        </mxCell>
        <mxCell id="6H1x6LzymzNOAmOgsFud-1" style="edgeStyle=orthogonalEdgeStyle;rounded=0;orthogonalLoop=1;jettySize=auto;html=1;exitX=1;exitY=0.5;exitDx=0;exitDy=0;entryX=0;entryY=0.5;entryDx=0;entryDy=0;" parent="WIyWlLk6GJQsqaUBKTNV-1" source="HYlRVXP8fHBSpNL6v8k7-2" target="HYlRVXP8fHBSpNL6v8k7-4" edge="1">
          <mxGeometry relative="1" as="geometry" />
        </mxCell>
        <mxCell id="HYlRVXP8fHBSpNL6v8k7-2" value="&lt;div&gt;&lt;b&gt;FIND FOCUS&lt;/b&gt;&lt;br&gt;&lt;/div&gt;&lt;div&gt;&lt;br&gt;&lt;/div&gt;&lt;div&gt;From all characters that the monster can attack, choose the one that : &lt;br&gt;&lt;/div&gt;&lt;div align=&quot;left&quot;&gt;&lt;ul&gt;&lt;li&gt;can be attacked with the less amount of trap hit, then&lt;/li&gt;&lt;li&gt;can be attacked with the least amount of hex travelled, then&lt;/li&gt;&lt;li&gt;who is the nearest to the attacker&lt;sup&gt;f,g&lt;/sup&gt;, then&lt;/li&gt;&lt;li&gt;who has the lowest initiative&lt;/li&gt;&lt;/ul&gt;&lt;/div&gt;&lt;div&gt;On egality, player chooses&lt;br&gt;&lt;/div&gt;" style="rounded=1;whiteSpace=wrap;html=1;fontSize=12;glass=0;strokeWidth=1;shadow=0;" parent="WIyWlLk6GJQsqaUBKTNV-1" vertex="1">
          <mxGeometry x="13.32" y="480" width="377.63" height="150" as="geometry" />
        </mxCell>
        <mxCell id="6H1x6LzymzNOAmOgsFud-2" style="edgeStyle=orthogonalEdgeStyle;rounded=0;orthogonalLoop=1;jettySize=auto;html=1;exitX=0.5;exitY=1;exitDx=0;exitDy=0;entryX=0.5;entryY=0;entryDx=0;entryDy=0;" parent="WIyWlLk6GJQsqaUBKTNV-1" source="HYlRVXP8fHBSpNL6v8k7-4" target="HYlRVXP8fHBSpNL6v8k7-6" edge="1">
          <mxGeometry relative="1" as="geometry">
            <Array as="points">
              <mxPoint x="612" y="623" />
              <mxPoint x="612" y="640" />
              <mxPoint x="202" y="640" />
            </Array>
          </mxGeometry>
        </mxCell>
        <mxCell id="HYlRVXP8fHBSpNL6v8k7-4" value="&lt;div&gt;&lt;b&gt;OPTIMIZE LOCATION TO ATTACK&lt;/b&gt;&lt;br&gt;&lt;/div&gt;&lt;div&gt;&lt;br&gt;&lt;/div&gt;&lt;div&gt;From all hexes where the monster can attack focus, choose the one that :&lt;/div&gt;&lt;div align=&quot;left&quot;&gt;&lt;ul&gt;&lt;li&gt;can be reached with less amount of trap hit, then&lt;/li&gt;&lt;li&gt;can be reached this turn if possible, then&lt;/li&gt;&lt;li&gt;who doesn&#39;t put the monster at disadvantage, if possible&lt;sup&gt;j,g&lt;/sup&gt;&lt;/li&gt;&lt;/ul&gt;&lt;/div&gt;" style="rounded=1;whiteSpace=wrap;html=1;fontSize=12;glass=0;strokeWidth=1;shadow=0;" parent="WIyWlLk6GJQsqaUBKTNV-1" vertex="1">
          <mxGeometry x="426.5" y="480" width="383.5" height="150" as="geometry" />
        </mxCell>
        <mxCell id="HYlRVXP8fHBSpNL6v8k7-6" value="&lt;div&gt;Single target attack &lt;br&gt;&lt;/div&gt;&lt;div&gt;or (cannot reach hex to attack focus)&lt;sup&gt;f&lt;/sup&gt; ?&lt;/div&gt;" style="rhombus;whiteSpace=wrap;html=1;shadow=0;fontFamily=Helvetica;fontSize=12;align=center;strokeWidth=1;spacing=6;spacingTop=-4;" parent="WIyWlLk6GJQsqaUBKTNV-1" vertex="1">
          <mxGeometry x="32.14" y="660" width="340" height="120" as="geometry" />
        </mxCell>
        <mxCell id="6H1x6LzymzNOAmOgsFud-6" style="edgeStyle=orthogonalEdgeStyle;rounded=0;orthogonalLoop=1;jettySize=auto;html=1;exitX=1;exitY=0.5;exitDx=0;exitDy=0;entryX=1;entryY=0.5;entryDx=0;entryDy=0;" parent="WIyWlLk6GJQsqaUBKTNV-1" source="HYlRVXP8fHBSpNL6v8k7-8" target="HYlRVXP8fHBSpNL6v8k7-17" edge="1">
          <mxGeometry relative="1" as="geometry">
            <Array as="points">
              <mxPoint x="737" y="710" />
              <mxPoint x="810" y="710" />
              <mxPoint x="810" y="1041" />
            </Array>
          </mxGeometry>
        </mxCell>
        <mxCell id="HYlRVXP8fHBSpNL6v8k7-8" value="&lt;div&gt;From remaining hexes, take the one that:&lt;/div&gt;&lt;div&gt;require the least amount of hex travelled&lt;/div&gt;&lt;div&gt;&lt;br&gt;&lt;/div&gt;&lt;div&gt;&lt;div align=&quot;center&quot;&gt;On equality, player chooses&lt;/div&gt;&lt;/div&gt;" style="whiteSpace=wrap;html=1;shadow=0;strokeWidth=1;spacing=6;spacingTop=-4;" parent="WIyWlLk6GJQsqaUBKTNV-1" vertex="1">
          <mxGeometry x="487" y="685" width="250" height="70" as="geometry" />
        </mxCell>
        <mxCell id="6H1x6LzymzNOAmOgsFud-11" style="edgeStyle=orthogonalEdgeStyle;rounded=0;orthogonalLoop=1;jettySize=auto;html=1;exitX=1;exitY=0.5;exitDx=0;exitDy=0;entryX=0;entryY=0.5;entryDx=0;entryDy=0;" parent="WIyWlLk6GJQsqaUBKTNV-1" source="HYlRVXP8fHBSpNL6v8k7-11" target="HYlRVXP8fHBSpNL6v8k7-14" edge="1">
          <mxGeometry relative="1" as="geometry" />
        </mxCell>
        <mxCell id="HYlRVXP8fHBSpNL6v8k7-11" value="&lt;div&gt;&lt;b&gt;FIND BEST GROUP&lt;/b&gt;&lt;br&gt;&lt;/div&gt;&lt;div&gt;&lt;br&gt;&lt;/div&gt;&lt;div&gt;From all character combination that can be attacked from the &lt;br&gt;&lt;/div&gt;&lt;div&gt;location above and containing focus, choose the one that:&lt;/div&gt;&lt;div align=&quot;left&quot;&gt;&lt;ul&gt;&lt;li&gt;maximize the number of character hit, then&lt;/li&gt;&lt;li&gt;require the less amount of distance travelled to attack, then&lt;/li&gt;&lt;li&gt;contain the highest rank of characters&lt;sup&gt;j,g&lt;/sup&gt; : rank is determined by proximity to attacker&lt;sup&gt;f,g&lt;/sup&gt; and initiative&lt;/li&gt;&lt;/ul&gt;&lt;/div&gt;" style="whiteSpace=wrap;html=1;shadow=0;strokeWidth=1;spacing=6;spacingTop=-4;rounded=1" parent="WIyWlLk6GJQsqaUBKTNV-1" vertex="1">
          <mxGeometry x="13.06" y="803" width="377" height="157" as="geometry" />
        </mxCell>
        <mxCell id="nwu6KK1hAaGZpG1vDYlY-1" style="edgeStyle=orthogonalEdgeStyle;rounded=0;orthogonalLoop=1;jettySize=auto;html=1;exitX=0.5;exitY=1;exitDx=0;exitDy=0;entryX=0.5;entryY=0;entryDx=0;entryDy=0;" parent="WIyWlLk6GJQsqaUBKTNV-1" source="HYlRVXP8fHBSpNL6v8k7-14" target="HYlRVXP8fHBSpNL6v8k7-17" edge="1">
          <mxGeometry relative="1" as="geometry" />
        </mxCell>
        <mxCell id="HYlRVXP8fHBSpNL6v8k7-14" value="&lt;div&gt;&lt;br&gt;&lt;/div&gt;&lt;div&gt;&lt;b&gt;OPTIMIZE LOCATION TO ATTACK BEST GROUP&lt;/b&gt;&lt;br&gt;&lt;/div&gt;&lt;div&gt;&lt;br&gt;&lt;/div&gt;&lt;div&gt;&lt;div&gt;From all hex where the monster can attack the groupe, choose &lt;br&gt;&lt;/div&gt;&lt;div&gt;the one that :&lt;/div&gt;&lt;/div&gt;&lt;div align=&quot;left&quot;&gt;&lt;ul&gt;&lt;li&gt;minimize the number of target at disadvantage, then&lt;/li&gt;&lt;li&gt;minimize the number of tile travelled&lt;/li&gt;&lt;/ul&gt;&lt;/div&gt;&lt;blockquote&gt;&lt;div align=&quot;left&quot;&gt;&lt;br&gt;&lt;/div&gt;&lt;div align=&quot;center&quot;&gt;On egality, player chooses&lt;/div&gt;&lt;/blockquote&gt;" style="whiteSpace=wrap;html=1;shadow=0;strokeWidth=1;spacing=6;spacingTop=-4;rounded=1" parent="WIyWlLk6GJQsqaUBKTNV-1" vertex="1">
          <mxGeometry x="426.5" y="803" width="371" height="157" as="geometry" />
        </mxCell>
        <mxCell id="CAe6eDNZriENMiDo3nfh-1" value="" style="edgeStyle=orthogonalEdgeStyle;rounded=0;orthogonalLoop=1;jettySize=auto;html=1;" edge="1" parent="WIyWlLk6GJQsqaUBKTNV-1" source="HYlRVXP8fHBSpNL6v8k7-17" target="HYlRVXP8fHBSpNL6v8k7-24">
          <mxGeometry relative="1" as="geometry">
            <Array as="points">
              <mxPoint x="430" y="1041" />
              <mxPoint x="430" y="1041" />
            </Array>
          </mxGeometry>
        </mxCell>
        <mxCell id="CAe6eDNZriENMiDo3nfh-2" value="No" style="edgeLabel;html=1;align=center;verticalAlign=middle;resizable=0;points=[];" vertex="1" connectable="0" parent="CAe6eDNZriENMiDo3nfh-1">
          <mxGeometry x="0.3583" y="2" relative="1" as="geometry">
            <mxPoint x="20" y="8" as="offset" />
          </mxGeometry>
        </mxCell>
        <mxCell id="HYlRVXP8fHBSpNL6v8k7-17" value="&lt;div&gt;Can the monster reach the&lt;/div&gt;&lt;div&gt;&amp;nbsp;destination this turn ?&lt;/div&gt;" style="rhombus;whiteSpace=wrap;html=1;shadow=0;strokeWidth=1;spacing=6;spacingTop=-4;" parent="WIyWlLk6GJQsqaUBKTNV-1" vertex="1">
          <mxGeometry x="439.88" y="985.66" width="338.75" height="111.12" as="geometry" />
        </mxCell>
        <mxCell id="HYlRVXP8fHBSpNL6v8k7-21" value="&lt;font color=&quot;#ff8000&quot;&gt;Monster move to this destination&lt;/font&gt;" style="strokeWidth=2;html=1;shape=mxgraph.flowchart.terminator;whiteSpace=wrap;strokeColor=#ff8000;" parent="WIyWlLk6GJQsqaUBKTNV-1" vertex="1">
          <mxGeometry x="519.26" y="1116" width="180.05" height="40" as="geometry" />
        </mxCell>
        <mxCell id="6H1x6LzymzNOAmOgsFud-12" style="edgeStyle=orthogonalEdgeStyle;rounded=0;orthogonalLoop=1;jettySize=auto;html=1;exitX=0.5;exitY=1;exitDx=0;exitDy=0;entryX=0;entryY=0.5;entryDx=0;entryDy=0;" parent="WIyWlLk6GJQsqaUBKTNV-1" source="HYlRVXP8fHBSpNL6v8k7-24" target="HYlRVXP8fHBSpNL6v8k7-21" edge="1">
          <mxGeometry relative="1" as="geometry" />
        </mxCell>
        <mxCell id="HYlRVXP8fHBSpNL6v8k7-24" value="&lt;b&gt;GET CLOSER&lt;/b&gt;&lt;div&gt;From all hex that the monster can reach and stop on, &lt;br&gt;&lt;/div&gt;&lt;div&gt;choose the one that :&lt;/div&gt;&lt;div align=&quot;left&quot;&gt;&lt;ul&gt;&lt;li&gt;create a path that minimize the number of trap travelled, then&lt;/li&gt;&lt;li&gt;minimize the distance to destination, then&lt;/li&gt;&lt;li&gt;minimize the distance traveleld this turn&lt;/li&gt;&lt;/ul&gt;&lt;/div&gt;&lt;div&gt;On egality, player chooses&lt;/div&gt;" style="whiteSpace=wrap;html=1;shadow=0;strokeWidth=1;spacing=6;spacingTop=-4;rounded=1" parent="WIyWlLk6GJQsqaUBKTNV-1" vertex="1">
          <mxGeometry x="13.06" y="972.44" width="377.63" height="137.56" as="geometry" />
        </mxCell>
        <mxCell id="6H1x6LzymzNOAmOgsFud-4" value="Yes" style="edgeStyle=orthogonalEdgeStyle;rounded=0;html=1;jettySize=auto;orthogonalLoop=1;fontSize=11;endArrow=block;endFill=0;endSize=8;strokeWidth=1;shadow=0;labelBackgroundColor=none;entryX=0;entryY=0.5;entryDx=0;entryDy=0;exitX=1;exitY=0.5;exitDx=0;exitDy=0;" parent="WIyWlLk6GJQsqaUBKTNV-1" source="HYlRVXP8fHBSpNL6v8k7-6" target="HYlRVXP8fHBSpNL6v8k7-8" edge="1">
          <mxGeometry y="10" relative="1" as="geometry">
            <mxPoint as="offset" />
            <mxPoint x="519" y="393" as="targetPoint" />
            <mxPoint x="389" y="393" as="sourcePoint" />
          </mxGeometry>
        </mxCell>
        <mxCell id="6H1x6LzymzNOAmOgsFud-7" value="Yes" style="edgeStyle=orthogonalEdgeStyle;rounded=0;html=1;jettySize=auto;orthogonalLoop=1;fontSize=11;endArrow=block;endFill=0;endSize=8;strokeWidth=1;shadow=0;labelBackgroundColor=none;entryX=0.5;entryY=0;entryDx=0;entryDy=0;exitX=0.5;exitY=1;exitDx=0;exitDy=0;" parent="WIyWlLk6GJQsqaUBKTNV-1" source="HYlRVXP8fHBSpNL6v8k7-17" target="HYlRVXP8fHBSpNL6v8k7-21" edge="1">
          <mxGeometry x="-0.3331" y="23" relative="1" as="geometry">
            <mxPoint as="offset" />
            <mxPoint x="552" y="715" as="targetPoint" />
            <mxPoint x="389" y="715" as="sourcePoint" />
          </mxGeometry>
        </mxCell>
        <mxCell id="6H1x6LzymzNOAmOgsFud-17" value="No" style="rounded=0;html=1;jettySize=auto;orthogonalLoop=1;fontSize=11;endArrow=block;endFill=0;endSize=8;strokeWidth=1;shadow=0;labelBackgroundColor=none;edgeStyle=orthogonalEdgeStyle;exitX=0.5;exitY=1;exitDx=0;exitDy=0;entryX=0.5;entryY=0;entryDx=0;entryDy=0;" parent="WIyWlLk6GJQsqaUBKTNV-1" source="HYlRVXP8fHBSpNL6v8k7-6" target="HYlRVXP8fHBSpNL6v8k7-11" edge="1">
          <mxGeometry x="0.0105" y="20" relative="1" as="geometry">
            <mxPoint as="offset" />
            <mxPoint x="201.28" y="773" as="sourcePoint" />
            <mxPoint x="201.28" y="803" as="targetPoint" />
          </mxGeometry>
        </mxCell>
        <mxCell id="6H1x6LzymzNOAmOgsFud-19" value="&lt;br&gt;&lt;div&gt;&lt;b&gt;NAVIGATION&lt;/b&gt;&lt;/div&gt;&lt;div align=&quot;left&quot;&gt;&lt;ul&gt;&lt;li&gt;Monster consider character as obstacle for movement,&lt;/li&gt;&lt;li&gt;Monster consider hazardous terrain as trap&lt;/li&gt;&lt;li&gt;When pathing to a hex, monster will always choose the path with&amp;nbsp;&amp;nbsp;&amp;nbsp;&amp;nbsp; the less trap triggered&lt;/li&gt;&lt;/ul&gt;&lt;/div&gt;&lt;div&gt;&lt;b&gt;Moving through&lt;/b&gt;&lt;div&gt;&lt;div align=&quot;left&quot;&gt;&lt;ul&gt;&lt;li&gt;Jumping and flying allow to move through obstacle&lt;/li&gt;&lt;li&gt;Teleporting allow to move through obstacle and wall line&lt;/li&gt;&lt;li&gt;Jumping, flying or teleporting allow to ignore trap&lt;/li&gt;&lt;li&gt;Movement cost 2 when entering difficult terrain and not jumping,&amp;nbsp;&amp;nbsp;&amp;nbsp;&amp;nbsp;&amp;nbsp;&amp;nbsp; not flying, not teleporting and not sliding&lt;/li&gt;&lt;li&gt;When entering icy hex, monster slide; it travel in a straight path at&amp;nbsp;&amp;nbsp; &amp;nbsp; no cost until it reach not ice, an ally or an obstacle&lt;/li&gt;&lt;li&gt;Flying, jumping and teleporting ignore ice&lt;/li&gt;&lt;/ul&gt;&lt;/div&gt;&lt;div&gt;&lt;div align=&quot;center&quot;&gt;&lt;b&gt;Stopping on&lt;/b&gt;&lt;/div&gt;&lt;div align=&quot;left&quot;&gt;&lt;ul&gt;&lt;li&gt;Jumping and teleporting monster trigger trap&lt;/li&gt;&lt;li&gt;Flying allow to stop on obstacle but not a character nor a monster&lt;br&gt;&lt;/li&gt;&lt;li&gt;Jumping and stopping on difficult terrain cost 2&lt;sup&gt;g&lt;/sup&gt;&lt;/li&gt;&lt;/ul&gt;&lt;/div&gt;&lt;/div&gt;&lt;/div&gt;&lt;/div&gt;" style="shape=hexagon;perimeter=hexagonPerimeter2;whiteSpace=wrap;html=1;fixedSize=1;strokeColor=#008000;strokeWidth=3;" parent="WIyWlLk6GJQsqaUBKTNV-1" vertex="1">
          <mxGeometry x="408" y="10" width="408" height="340" as="geometry" />
        </mxCell>
        <mxCell id="6H1x6LzymzNOAmOgsFud-20" value="&lt;div&gt;&lt;b&gt;ATTACKING&lt;/b&gt;&lt;/div&gt;&lt;div align=&quot;left&quot;&gt;&lt;ul&gt;&lt;li&gt;&lt;div&gt;Monster will avoid disadvantage if not muddled&lt;/div&gt;&lt;/li&gt;&lt;li&gt;&lt;div&gt;A monster with move and no attack will move as it had a single target melee attack&lt;/div&gt;&lt;/li&gt;&lt;li&gt;&lt;div&gt;LOS is between corner of hexes&lt;sup&gt;g&lt;/sup&gt; or between any point of the hexes&lt;sup&gt;j,f&lt;/sup&gt;&lt;/div&gt;&lt;/li&gt;&lt;li&gt;Extra target are attacked with a single target attack&lt;/li&gt;&lt;li&gt;Single target attack can occur between a location and a character if the monster has the range &amp;amp; it can end move on location &amp;amp; it has LOS&lt;/li&gt;&lt;li&gt;An aoe pattern can be applied if the monster has the range &amp;amp;&amp;nbsp;&amp;nbsp;&amp;nbsp; LOS to any hex of the pattern that is not an obstacle nor a wall&lt;/li&gt;&lt;li&gt;Once the pattern is applied, the monster can hit all the char&amp;nbsp;&amp;nbsp;&amp;nbsp;&amp;nbsp; which he has LOS&lt;/li&gt;&lt;li&gt;LOS is only blocked by wall line&lt;/li&gt;&lt;/ul&gt;&lt;/div&gt;" style="shape=hexagon;perimeter=hexagonPerimeter2;whiteSpace=wrap;html=1;fixedSize=1;strokeColor=#ff0000;strokeWidth=3;" parent="WIyWlLk6GJQsqaUBKTNV-1" vertex="1">
          <mxGeometry x="6.07" y="10" width="392.13" height="260" as="geometry" />
        </mxCell>
        <mxCell id="6H1x6LzymzNOAmOgsFud-25" value="&lt;sup&gt;f, g, j&lt;/sup&gt; only in Frosthaven, Gloomhaven or JOTL " style="text;html=1;strokeColor=none;fillColor=none;align=center;verticalAlign=middle;whiteSpace=wrap;rounded=0;" parent="WIyWlLk6GJQsqaUBKTNV-1" vertex="1">
          <mxGeometry x="13.06" y="1130" width="316.68" height="30" as="geometry" />
        </mxCell>
      </root>
    </mxGraphModel>
  </diagram>
</mxfile>
